<?xml version="1.0" encoding="utf-8"?>
<!-- Generator: Adobe Illustrator 16.0.0, SVG Export Plug-In . SVG Version: 6.00 Build 0)  -->
<!DOCTYPE svg PUBLIC "-//W3C//DTD SVG 1.1//EN" "http://www.w3.org/Graphics/SVG/1.1/DTD/svg11.dtd">
<svg version="1.1" id="Layer_1" xmlns="http://www.w3.org/2000/svg" xmlns:xlink="http://www.w3.org/1999/xlink" x="0px" y="0px"
	 width="4000px" height="120px" viewBox="0 0 4000 120" enable-background="new 0 0 4000 120" xml:space="preserve">
<g>
	<path d="M0,0v19.646c0.502-0.285,1.027-0.543,1.575-0.767c1.923-0.794,3.998-1.185,6.223-1.185
		s4.3,0.39,6.224,1.185c1.922,0.795,3.597,1.94,5.032,3.437c1.435,1.498,2.562,3.342,3.364,5.521
		c0.811,2.184,1.217,4.643,1.217,7.388c0,2.776-0.406,5.235-1.217,7.381c-0.801,2.148-1.929,3.968-3.364,5.476
		c-1.435,1.497-3.11,2.636-5.032,3.415c-1.924,0.77-3.999,1.155-6.224,1.155s-4.3-0.385-6.223-1.155
		C1.027,51.274,0.502,51.018,0,50.745V120h4065.012V0H0z M56.27,19.534v-3.245h3.729h3.729v3.245v3.244h-3.729H56.27V19.534z
		 M56.27,25.345h7.458v26.779H56.27V25.345z M42.905,96.41h-9.25L21.743,74.038V96.41h-7.361V62.513h9.153l12.009,22.809V62.513
		h7.36V96.41z M41.282,51.616c-1.211,0.564-2.753,0.847-4.625,0.847c-1.549,0-2.905-0.234-4.067-0.702
		c-1.162-0.468-2.131-1.114-2.906-1.938s-1.356-1.791-1.744-2.905c-0.387-1.114-0.58-2.332-0.58-3.656V25.345h7.458v16.513
		c0,1.55,0.355,2.696,1.064,3.438c0.71,0.743,1.711,1.114,3.003,1.114c1.614,0,2.864-0.5,3.753-1.501
		c0.888-1,1.332-2.388,1.332-4.164V25.345h7.458v26.779h-7.361v-2.373C43.421,50.43,42.493,51.051,41.282,51.616z M72.274,89.001
		c-0.662,1.712-1.574,3.14-2.736,4.286c-1.163,1.146-2.559,2.01-4.188,2.591c-1.63,0.581-3.414,0.872-5.351,0.872
		c-1.937,0-3.713-0.291-5.327-0.872c-1.614-0.581-3.002-1.444-4.165-2.591c-1.162-1.146-2.074-2.574-2.736-4.286
		c-0.662-1.71-0.992-3.696-0.992-5.956c0-2.26,0.33-4.253,0.992-5.98c0.662-1.727,1.574-3.164,2.736-4.311
		c1.163-1.146,2.55-2.009,4.165-2.59c1.614-0.582,3.39-0.872,5.327-0.872c1.938,0,3.721,0.291,5.351,0.872
		c1.629,0.581,3.026,1.445,4.188,2.59c1.162,1.146,2.074,2.583,2.736,4.311c0.661,1.727,0.993,3.72,0.993,5.98
		C73.267,85.305,72.935,87.291,72.274,89.001z M101.305,96.41h-7.506V79.945c0-1.452-0.363-2.558-1.09-3.316
		s-1.736-1.138-3.026-1.138c-1.518,0-2.785,0.484-3.801,1.453c-1.018,0.969-1.526,2.469-1.526,4.503V96.41h-7.458V69.631h7.36v2.615
		c0.807-0.872,1.817-1.582,3.027-2.131c1.21-0.549,2.655-0.824,4.334-0.824c3.131,0,5.528,0.808,7.191,2.421
		c1.662,1.616,2.494,3.81,2.494,6.586V96.41z"/>
	<path d="M64.042,77.137c-0.501-0.613-1.098-1.065-1.792-1.356c-0.695-0.291-1.445-0.436-2.252-0.436
		c-1.582,0-2.914,0.598-3.995,1.792c-1.082,1.195-1.622,3.164-1.622,5.908c0,1.356,0.146,2.519,0.436,3.487
		c0.291,0.969,0.685,1.76,1.186,2.373c0.5,0.614,1.097,1.065,1.791,1.356s1.429,0.436,2.204,0.436c1.613,0,2.961-0.589,4.043-1.768
		c1.082-1.178,1.622-3.139,1.622-5.884c0-1.388-0.145-2.567-0.436-3.535C64.938,78.542,64.542,77.751,64.042,77.137z"/>
	<path d="M7.796,46.119c2.583,0,4.528-0.969,5.835-2.905c1.308-1.938,1.961-4.601,1.961-7.991
		c0-3.583-0.653-6.311-1.961-8.184c-1.308-1.872-3.252-2.809-5.835-2.809c-2.583,0-4.527,0.937-5.835,2.809
		C0.654,28.913,0,31.64,0,35.224c0,3.39,0.654,6.053,1.961,7.991C3.27,45.15,5.214,46.119,7.796,46.119z"/>
</g>
</svg>
