<?xml version="1.0" encoding="utf-8"?>
<!DOCTYPE svg PUBLIC "-//W3C//DTD SVG 1.1//EN" "http://www.w3.org/Graphics/SVG/1.1/DTD/svg11.dtd">
<svg version="1.1" id="Layer_1" xmlns="http://www.w3.org/2000/svg" xmlns:xlink="http://www.w3.org/1999/xlink" x="0px" y="0px"
	 width="50px" height="49.989px" viewBox="0 0 50 49.989" enable-background="new 0 0 50 49.989" xml:space="preserve">
<g>
	<path d="M26.68,32.133c-0.209-0.256-0.458-0.443-0.747-0.564c-0.29-0.121-0.602-0.182-0.938-0.182
		c-0.659,0-1.214,0.248-1.665,0.746s-0.676,1.318-0.676,2.461c0,0.564,0.061,1.049,0.182,1.453c0.121,0.403,0.286,0.732,0.494,0.988
		s0.457,0.443,0.747,0.564c0.289,0.121,0.595,0.182,0.918,0.182c0.672,0,1.233-0.245,1.685-0.736c0.45-0.49,0.676-1.308,0.676-2.451
		c0-0.578-0.061-1.068-0.182-1.473C27.053,32.718,26.888,32.389,26.68,32.133z"/>
	<path d="M0,0v8.181c0.211-0.117,0.429-0.224,0.656-0.317c0.8-0.33,1.665-0.494,2.592-0.494S5.04,7.533,5.84,7.863
		s1.5,0.807,2.098,1.432c0.598,0.626,1.065,1.393,1.402,2.301s0.504,1.934,0.504,3.076c0,1.156-0.168,2.182-0.504,3.076
		s-0.804,1.654-1.402,2.279c-0.599,0.626-1.298,1.1-2.098,1.423s-1.665,0.484-2.592,0.484s-1.792-0.161-2.592-0.484
		C0.429,21.359,0.211,21.254,0,21.138v28.852h50V0H0z M23.441,8.136V6.783h1.554h1.553v1.353v1.352h-1.553h-1.554V8.136z
		 M23.441,10.557h3.107v11.156h-3.107V10.557z M17.874,40.162h-3.854l-4.963-9.32v9.32H5.991V26.041h3.813l5.003,9.501v-9.501h3.066
		V40.162z M17.198,21.5c-0.505,0.236-1.147,0.354-1.927,0.354c-0.646,0-1.21-0.098-1.695-0.293c-0.484-0.193-0.887-0.463-1.21-0.807
		c-0.323-0.343-0.565-0.746-0.727-1.21c-0.161-0.464-0.242-0.972-0.242-1.522v-7.465h3.107v6.879c0,0.646,0.147,1.123,0.443,1.433
		s0.713,0.464,1.251,0.464c0.672,0,1.193-0.209,1.563-0.625c0.37-0.417,0.555-0.996,0.555-1.735v-6.415h3.107v11.156h-3.066v-0.988
		C18.089,21.006,17.702,21.266,17.198,21.5z M30.109,37.075c-0.276,0.714-0.656,1.308-1.14,1.786
		c-0.484,0.477-1.066,0.836-1.745,1.078s-1.422,0.363-2.229,0.363c-0.807,0-1.547-0.121-2.219-0.363
		c-0.673-0.242-1.251-0.602-1.735-1.078c-0.484-0.479-0.864-1.072-1.14-1.786c-0.276-0.712-0.414-1.54-0.414-2.481
		s0.138-1.771,0.414-2.491c0.275-0.72,0.655-1.317,1.14-1.796c0.484-0.477,1.062-0.837,1.735-1.078
		c0.672-0.242,1.412-0.363,2.219-0.363c0.807,0,1.55,0.121,2.229,0.363c0.679,0.241,1.261,0.602,1.745,1.078
		c0.484,0.479,0.864,1.076,1.14,1.796s0.414,1.55,0.414,2.491S30.385,36.363,30.109,37.075z M42.203,40.162h-3.127v-6.859
		c0-0.605-0.151-1.065-0.454-1.382c-0.303-0.315-0.723-0.474-1.261-0.474c-0.633,0-1.16,0.201-1.584,0.605
		c-0.424,0.402-0.635,1.028-0.635,1.875v6.234h-3.107V29.006h3.066v1.09c0.336-0.363,0.757-0.659,1.261-0.889
		c0.505-0.229,1.106-0.342,1.806-0.342c1.305,0,2.303,0.336,2.996,1.008c0.692,0.673,1.039,1.588,1.039,2.744V40.162z"/>
	<path d="M3.248,19.211c1.076,0,1.886-0.403,2.431-1.211c0.545-0.807,0.817-1.916,0.817-3.328
		c0-1.492-0.272-2.629-0.817-3.409c-0.544-0.78-1.355-1.171-2.431-1.171c-1.076,0-1.886,0.391-2.431,1.171
		C0.272,12.043,0,13.18,0,14.672C0,16.084,0.272,17.193,0.817,18C1.362,18.808,2.172,19.211,3.248,19.211z"/>
</g>
</svg>
